<?xml version="1.0" encoding="UTF-8" standalone="no"?>
<!DOCTYPE svg PUBLIC "-//W3C//DTD SVG 1.1//EN" "http://www.w3.org/Graphics/SVG/1.1/DTD/svg11.dtd">
<svg width="100%" height="100%" viewBox="0 0 400 400" version="1.1" xmlns="http://www.w3.org/2000/svg" xmlns:xlink="http://www.w3.org/1999/xlink" xml:space="preserve" xmlns:serif="http://www.serif.com/" style="fill-rule:evenodd;clip-rule:evenodd;stroke-linejoin:round;stroke-miterlimit:2;">
    <g transform="matrix(1,0,0,1,-1850.38,-940.841)">
        <g id="アートボード10" transform="matrix(0.501897,0,0,0.549674,-267.678,862.584)">
            <rect x="4220.1" y="142.371" width="796.976" height="727.705" style="fill:none;"/>
            <g>
                <g transform="matrix(1,0,0,1,3.1552,0)">
                    <path d="M4360.64,549.902C4359.77,550.978 4358.49,551.776 4356.95,552.07C4349.95,553.442 4342.04,552.23 4333.24,546.715C4325.09,541.606 4319.41,534.832 4317.1,528.328C4316.44,526.482 4316.75,524.458 4317.96,522.854C4319.16,521.25 4321.11,520.249 4323.24,520.146C4330.62,519.763 4339.49,522.136 4347.6,527.22C4353.01,530.612 4356.66,534.318 4358.94,538.184C4357.83,528.558 4357.39,518.787 4357.6,508.931C4356.71,510.835 4354.69,512.205 4352.29,512.321C4345.14,512.698 4337.52,510.395 4329.75,503.716C4322.55,497.529 4318.08,490.042 4316.89,483.292C4316.54,481.374 4317.19,479.418 4318.65,478.001C4320.1,476.584 4322.2,475.867 4324.32,476.062C4331.68,476.715 4340.04,480.3 4347.21,486.456C4353.69,492.025 4356.87,497.709 4357.8,503.271C4358.35,491.444 4359.85,479.513 4362.27,467.584C4361.92,468.737 4361.17,469.767 4360.12,470.512C4358.72,471.497 4356.93,471.886 4355.2,471.581C4347.82,470.313 4340.27,466.192 4333.03,457.603C4326.33,449.654 4322.49,440.959 4321.85,433.639C4321.65,431.524 4322.65,429.464 4324.49,428.167C4326.33,426.871 4328.76,426.516 4330.95,427.225C4338.46,429.627 4346.6,435.185 4353.27,443.095C4360.54,451.717 4363,459.509 4362.48,466.436L4362.47,466.639C4364.72,455.746 4367.76,444.856 4371.55,434.052C4371.23,434.291 4370.88,434.502 4370.51,434.679C4368.94,435.423 4367.11,435.516 4365.46,434.935C4358.45,432.491 4351.82,427.21 4346.36,417.584C4341.31,408.675 4339.23,399.495 4340.01,392.188C4340.23,390.075 4341.61,388.208 4343.68,387.231C4345.74,386.254 4348.21,386.299 4350.23,387.352C4357.14,390.932 4364.07,397.723 4369.1,406.588C4373.32,414.035 4374.82,420.535 4374.44,426.206C4388.44,390.051 4411.03,355.079 4441.83,324.359C4441.96,324.25 4442.16,324.25 4442.28,324.36C4442.41,324.469 4442.42,324.65 4442.31,324.77C4433.81,333.923 4426.02,343.271 4418.91,352.764C4422.87,349.335 4428.52,346.73 4436.43,345.47C4445.17,344.078 4453.47,344.836 4459.71,347.175C4461.9,347.989 4463.48,349.773 4463.88,351.898C4464.29,354.023 4463.47,356.19 4461.72,357.635C4456.78,361.722 4449.33,364.962 4440.65,366.345C4430.97,367.886 4423.69,366.497 4418.19,363.395C4416.68,362.558 4415.63,361.168 4415.32,359.58C4415.2,358.94 4415.2,358.294 4415.32,357.667C4407.44,368.612 4400.48,379.737 4394.4,390.964C4397.44,385.942 4402.88,381.567 4411.88,378.549C4420.2,375.757 4428.52,375.151 4435.12,376.435C4437.43,376.88 4439.33,378.378 4440.15,380.402C4440.96,382.427 4440.58,384.692 4439.14,386.4C4435.07,391.226 4428.38,395.627 4420.1,398.404C4410.89,401.495 4403.45,401.315 4397.43,399.16C4395.78,398.582 4394.48,397.384 4393.87,395.872C4393.34,394.566 4393.36,393.135 4393.92,391.856C4387.79,403.287 4382.57,414.824 4378.26,426.384C4380.41,420.998 4385.05,415.912 4393.43,411.666C4401.18,407.735 4409.29,405.967 4416.03,406.307C4418.39,406.421 4420.52,407.634 4421.67,409.519C4422.82,411.404 4422.82,413.696 4421.69,415.587C4418.49,420.927 4412.61,426.218 4404.91,430.126C4396.32,434.478 4388.94,435.346 4382.63,434.064C4380.9,433.726 4379.42,432.724 4378.56,431.316C4377.76,430.004 4377.57,428.458 4378.02,427.023C4367.58,455.235 4362.51,483.581 4362.52,510.893C4363.81,505.322 4367.28,499.294 4373.92,492.871C4380.77,486.247 4388.54,481.572 4395.54,479.38C4397.95,478.625 4400.62,479.152 4402.48,480.749C4404.34,482.346 4405.07,484.751 4404.39,486.994C4402.42,493.43 4397.79,500.707 4390.98,507.295C4383.41,514.61 4376.14,518.185 4369.36,519.308C4367.43,519.638 4365.44,519.107 4364.01,517.879C4363.4,517.35 4362.92,516.719 4362.59,516.029C4362.88,527.902 4364.13,539.563 4366.34,550.916C4366.55,545.18 4368.88,538.647 4374.34,531.227C4379.9,523.664 4386.72,517.885 4393.23,514.671C4395.47,513.564 4398.2,513.682 4400.32,514.978C4402.44,516.274 4403.59,518.535 4403.32,520.851C4402.54,527.495 4399.29,535.368 4393.76,542.891C4387.62,551.243 4381.09,555.863 4374.6,557.991C4372.76,558.606 4370.7,558.381 4369.07,557.384C4368.38,556.958 4367.79,556.413 4367.34,555.789C4369.94,567.611 4373.58,579.077 4378.23,590.075C4377.64,584.9 4378.67,578.982 4381.94,572.209C4386.47,562.849 4393.46,555.649 4400.7,551.995C4402.56,551.051 4404.81,550.957 4406.76,551.741C4408.71,552.525 4410.15,554.098 4410.65,555.992C4412.57,563.246 4411.46,572.715 4406.95,582.033C4402.1,592.075 4395.4,597.574 4387.99,600.147C4386.15,600.791 4384.18,600.574 4382.62,599.71C4387.89,610.469 4394.17,620.721 4401.44,630.351C4398.6,624.879 4397.64,617.956 4399.61,609.163C4401.86,599.14 4407.02,590.751 4413.24,585.779C4414.85,584.495 4417.02,583.968 4419.11,584.357C4421.2,584.745 4422.97,586.003 4423.9,587.758C4427.46,594.475 4428.57,603.944 4426.33,613.922C4423.92,624.676 4418.65,631.345 4412,635.297C4409.91,636.547 4407.29,636.482 4405.32,635.318C4412.73,644.488 4421.08,653.05 4430.34,660.898C4427.4,656.237 4425.72,650.231 4425.91,642.507C4426.15,632.278 4429.58,623.181 4434.73,617.272C4436.06,615.746 4438.09,614.873 4440.22,614.914C4442.36,614.954 4444.35,615.902 4445.6,617.476C4450.42,623.503 4453.38,632.636 4453.13,642.819C4452.86,653.795 4448.99,661.216 4443.23,666.191C4442,667.251 4440.43,667.762 4438.87,667.73C4446.33,673.374 4454.31,678.585 4462.8,683.317C4458.37,678.378 4455.61,671.485 4455.67,661.911C4455.74,651.68 4459,642.534 4464.05,636.549C4465.35,635.004 4467.36,634.102 4469.5,634.111C4471.63,634.119 4473.64,635.038 4474.92,636.594C4479.85,642.549 4482.97,651.637 4482.9,661.822C4482.82,672.8 4479.09,680.278 4473.41,685.338C4472.33,686.305 4470.96,686.834 4469.56,686.926C4481.27,692.918 4493.9,698.03 4507.41,702.151C4501.13,698.258 4496.16,691.771 4493.8,681.443C4491.51,671.427 4492.6,661.859 4496.15,655.039C4497.07,653.279 4498.83,652.01 4500.91,651.609C4503,651.208 4505.18,651.721 4506.79,652.995C4512.98,657.871 4518.12,666.158 4520.4,676.128C4522.86,686.875 4520.92,694.903 4516.53,700.94C4515.43,702.465 4513.65,703.339 4511.8,703.446C4513.37,703.894 4514.95,704.328 4516.54,704.749C4528.65,707.95 4538.8,710.648 4547.56,713.063C4542.66,709.714 4538.27,704.717 4534.75,697.57C4529.36,686.646 4528.31,675.398 4531.07,667.041C4531.65,665.339 4533,663.944 4534.77,663.21C4536.55,662.475 4538.59,662.471 4540.37,663.199C4548.97,666.769 4557.42,674.868 4562.78,685.753C4568.45,697.255 4568.12,706.662 4564.4,714.359C4563.82,715.556 4562.83,716.483 4561.64,717.053C4583.71,723.531 4596.4,728.607 4615.43,738.208C4634.47,728.607 4647.15,723.531 4669.22,717.053C4668.03,716.483 4667.05,715.556 4666.47,714.359C4662.75,706.662 4662.41,697.255 4668.08,685.753C4673.45,674.868 4681.9,666.769 4690.5,663.199C4692.28,662.471 4694.32,662.475 4696.09,663.21C4697.87,663.944 4699.22,665.339 4699.79,667.041C4702.56,675.398 4701.5,686.646 4696.12,697.57C4692.59,704.717 4688.21,709.714 4683.31,713.063C4692.07,710.648 4702.22,707.95 4714.33,704.749C4715.92,704.328 4717.5,703.894 4719.07,703.446C4717.21,703.339 4715.43,702.465 4714.33,700.94C4709.94,694.903 4708.01,686.875 4710.47,676.128C4712.75,666.158 4717.89,657.871 4724.08,652.995C4725.69,651.721 4727.86,651.208 4729.95,651.609C4732.04,652.01 4733.8,653.279 4734.72,655.039C4738.27,661.859 4739.36,671.427 4737.07,681.443C4734.7,691.771 4729.74,698.258 4723.46,702.151C4736.97,698.03 4749.59,692.918 4761.31,686.926C4759.91,686.834 4758.54,686.305 4757.46,685.338C4751.78,680.278 4748.04,672.8 4747.97,661.822C4747.9,651.637 4751.02,642.549 4755.94,636.594C4757.23,635.038 4759.23,634.119 4761.37,634.111C4763.5,634.102 4765.52,635.004 4766.82,636.549C4771.86,642.534 4775.13,651.68 4775.19,661.911C4775.26,671.485 4772.5,678.378 4768.07,683.317C4776.56,678.585 4784.54,673.374 4792,667.73C4790.44,667.762 4788.86,667.251 4787.64,666.191C4781.87,661.216 4778,653.795 4777.74,642.819C4777.49,632.636 4780.44,623.503 4785.27,617.476C4786.52,615.902 4788.51,614.954 4790.64,614.914C4792.78,614.873 4794.81,615.746 4796.13,617.272C4801.28,623.181 4804.71,632.278 4804.96,642.507C4805.15,650.231 4803.47,656.237 4800.53,660.898C4809.78,653.05 4818.13,644.488 4825.55,635.318C4823.57,636.482 4820.95,636.547 4818.86,635.297C4812.21,631.345 4806.95,624.676 4804.53,613.922C4802.29,603.944 4803.41,594.475 4806.97,587.758C4807.9,586.003 4809.67,584.745 4811.76,584.357C4813.85,583.968 4816.02,584.495 4817.62,585.779C4823.85,590.751 4829.01,599.14 4831.26,609.163C4833.23,617.956 4832.27,624.879 4829.43,630.351C4836.7,620.721 4842.98,610.469 4848.25,599.71C4846.68,600.574 4844.72,600.791 4842.88,600.147C4835.46,597.574 4828.77,592.075 4823.91,582.033C4819.41,572.715 4818.3,563.246 4820.22,555.992C4820.72,554.098 4822.16,552.525 4824.11,551.741C4826.06,550.957 4828.3,551.051 4830.17,551.995C4837.41,555.649 4844.4,562.849 4848.92,572.209C4852.2,578.982 4853.23,584.9 4852.64,590.075C4857.29,579.077 4860.93,567.611 4863.52,555.789C4863.07,556.413 4862.49,556.958 4861.79,557.384C4860.16,558.381 4858.11,558.606 4856.27,557.991C4849.78,555.863 4843.25,551.243 4837.1,542.891C4831.57,535.368 4828.32,527.495 4827.54,520.851C4827.27,518.535 4828.43,516.274 4830.55,514.978C4832.67,513.682 4835.4,513.564 4837.64,514.671C4844.15,517.885 4850.97,523.664 4856.53,531.227C4861.98,538.647 4864.32,545.18 4864.53,550.916C4866.73,539.563 4867.99,527.902 4868.28,516.029C4867.95,516.719 4867.47,517.35 4866.85,517.879C4865.43,519.107 4863.44,519.638 4861.51,519.308C4854.72,518.185 4847.45,514.61 4839.89,507.295C4833.07,500.707 4828.45,493.43 4826.48,486.994C4825.8,484.751 4826.53,482.346 4828.39,480.749C4830.24,479.152 4832.91,478.625 4835.33,479.38C4842.32,481.572 4850.09,486.247 4856.94,492.871C4863.59,499.294 4867.06,505.322 4868.34,510.893C4868.36,483.581 4863.29,455.235 4852.85,427.023C4853.3,428.458 4853.11,430.004 4852.31,431.316C4851.45,432.724 4849.97,433.726 4848.24,434.064C4841.92,435.346 4834.55,434.478 4825.96,430.126C4818.25,426.218 4812.38,420.927 4809.18,415.587C4808.04,413.696 4808.05,411.404 4809.2,409.519C4810.35,407.634 4812.47,406.421 4814.83,406.307C4821.57,405.967 4829.68,407.735 4837.44,411.666C4845.82,415.912 4850.46,420.998 4852.61,426.384C4848.3,414.824 4843.08,403.287 4836.94,391.856C4837.5,393.135 4837.53,394.566 4837,395.872C4836.39,397.384 4835.09,398.582 4833.44,399.16C4827.41,401.315 4819.98,401.495 4810.76,398.404C4802.49,395.627 4795.79,391.226 4791.73,386.4C4790.28,384.692 4789.9,382.427 4790.72,380.402C4791.54,378.378 4793.44,376.88 4795.75,376.435C4802.35,375.151 4810.66,375.757 4818.99,378.549C4827.98,381.567 4833.43,385.942 4836.46,390.964C4830.39,379.737 4823.42,368.612 4815.55,357.667C4815.66,358.294 4815.66,358.94 4815.54,359.58C4815.23,361.168 4814.19,362.558 4812.68,363.395C4807.18,366.497 4799.9,367.886 4790.22,366.345C4781.53,364.962 4774.09,361.722 4769.15,357.635C4767.39,356.19 4766.57,354.023 4766.98,351.898C4767.39,349.773 4768.97,347.989 4771.15,347.175C4777.4,344.836 4785.7,344.078 4794.44,345.47C4802.35,346.73 4808,349.335 4811.95,352.764C4804.85,343.271 4797.06,333.923 4788.56,324.77C4788.45,324.65 4788.46,324.469 4788.58,324.36C4788.71,324.25 4788.91,324.25 4789.03,324.359C4819.84,355.079 4842.43,390.051 4856.42,426.206C4856.04,420.535 4857.55,414.035 4861.77,406.588C4866.79,397.723 4873.73,390.932 4880.64,387.352C4882.66,386.299 4885.12,386.254 4887.19,387.231C4889.25,388.208 4890.63,390.075 4890.85,392.188C4891.64,399.495 4889.55,408.675 4884.51,417.584C4879.05,427.21 4872.42,432.491 4865.4,434.935C4863.76,435.516 4861.92,435.423 4860.36,434.679C4859.99,434.502 4859.64,434.291 4859.32,434.052C4863.11,444.856 4866.14,455.746 4868.4,466.639L4868.38,466.436C4867.87,459.509 4870.33,451.717 4877.6,443.095C4884.27,435.185 4892.41,429.627 4899.91,427.225C4902.1,426.516 4904.54,426.871 4906.38,428.167C4908.22,429.464 4909.22,431.524 4909.02,433.639C4908.38,440.959 4904.54,449.654 4897.84,457.603C4890.6,466.192 4883.04,470.313 4875.66,471.581C4873.93,471.886 4872.14,471.497 4870.75,470.512C4869.7,469.767 4868.95,468.737 4868.6,467.584C4871.02,479.513 4872.52,491.444 4873.07,503.271C4874,497.709 4877.18,492.025 4883.66,486.456C4890.82,480.3 4899.19,476.715 4906.55,476.062C4908.67,475.867 4910.76,476.584 4912.22,478.001C4913.68,479.418 4914.33,481.374 4913.98,483.292C4912.79,490.042 4908.31,497.529 4901.11,503.716C4893.35,510.395 4885.73,512.698 4878.58,512.321C4876.18,512.205 4874.16,510.835 4873.27,508.931C4873.48,518.787 4873.03,528.558 4871.92,538.184C4874.21,534.318 4877.86,530.612 4883.27,527.22C4891.38,522.136 4900.25,519.763 4907.63,520.146C4909.76,520.249 4911.71,521.25 4912.91,522.854C4914.11,524.458 4914.43,526.482 4913.76,528.328C4911.45,534.832 4905.78,541.606 4897.63,546.715C4888.83,552.23 4880.92,553.442 4873.92,552.07C4872.38,551.776 4871.09,550.978 4870.23,549.902C4868.68,558.801 4866.54,567.55 4863.8,576.097C4866.44,573.792 4869.79,571.695 4873.99,569.88C4882.88,566.034 4892.04,564.972 4899.27,566.418C4901.35,566.827 4903.1,568.098 4904.01,569.856C4904.92,571.613 4904.88,573.657 4903.9,575.384C4900.49,581.472 4893.72,587.34 4884.78,591.206C4875.14,595.378 4867.12,595.431 4860.44,593.064C4859.51,592.741 4858.72,592.232 4858.1,591.602C4854.77,599.547 4850.9,607.278 4846.46,614.748C4849.55,612.693 4853.38,610.974 4858.08,609.699C4867.51,607.144 4876.75,607.38 4883.65,609.821C4885.63,610.517 4887.15,612.018 4887.76,613.882C4888.36,615.747 4887.98,617.761 4886.72,619.33C4882.33,624.868 4874.64,629.717 4865.16,632.285C4854.94,635.056 4847,633.984 4840.8,630.71C4839.46,630.01 4838.52,628.916 4838.05,627.677C4833.29,634.359 4828.05,640.792 4822.31,646.937C4824.86,646.089 4827.71,645.45 4830.88,645.057C4841.77,643.706 4851.91,645.805 4858.69,650.148C4860.25,651.147 4861.28,652.694 4861.53,654.416C4861.78,656.137 4861.23,657.877 4860.02,659.213C4854.65,665.101 4845.4,669.634 4834.47,670.99C4822.89,672.426 4814.61,669.661 4808.67,664.65C4807.72,663.856 4807.11,662.844 4806.84,661.765C4798.82,668.651 4790.06,675.063 4780.55,680.934C4785.18,679.363 4790.71,678.472 4797.31,678.474C4809.27,678.477 4819.92,681.411 4826.9,686.002C4828.68,687.176 4829.74,689.064 4829.73,691.073C4829.73,693.083 4828.67,694.968 4826.88,696.137C4819.81,700.759 4809.05,703.714 4797.04,703.711C4784.21,703.707 4775.5,700.334 4769.63,695.163C4768.42,694.103 4767.73,692.637 4767.74,691.105C4767.75,689.767 4768.28,688.482 4769.22,687.477C4757.42,693.847 4744.58,699.442 4730.7,704.154C4737.8,702.033 4746.61,701.909 4757.57,704.901C4769.6,708.182 4779.41,713.899 4785.04,720.2C4786.48,721.804 4786.94,723.954 4786.29,725.938C4785.64,727.922 4783.95,729.482 4781.79,730.1C4773.19,732.557 4761.45,732.418 4749.37,729.122C4736.48,725.605 4728.74,720.002 4724.4,713.455C4723.5,712.097 4723.27,710.453 4723.78,708.932C4724.28,707.411 4725.47,706.157 4727.04,705.483C4727.55,705.266 4728.06,705.059 4728.58,704.864C4723.93,706.402 4719.16,707.842 4714.27,709.179C4706.11,711.414 4698.75,713.454 4692.09,715.332C4699.49,715.224 4707.68,717.314 4716.66,722.568C4728.62,729.56 4736.79,739.111 4739.52,748.012C4740.03,749.711 4739.72,751.526 4738.67,753.006C4737.63,754.486 4735.95,755.492 4734.04,755.775C4723.92,757.202 4710.89,754.383 4698.9,747.369C4686.36,740.041 4680.68,731.474 4679.19,722.693C4678.95,721.268 4679.32,719.874 4680.14,718.748C4646.44,728.529 4633.79,733.668 4620.81,740.954C4631.23,746.323 4643.69,753.022 4660.31,761.85L4656.93,767.859C4656.87,767.953 4656.78,768.023 4656.67,768.052C4656.55,768.08 4656.43,768.065 4656.34,768.01C4636.06,756.903 4624.94,749.721 4615.43,744.072C4605.93,749.721 4594.8,756.903 4574.53,768.01C4574.43,768.065 4574.31,768.08 4574.2,768.052C4574.09,768.023 4573.99,767.953 4573.94,767.859L4570.56,761.85C4587.18,753.022 4599.64,746.323 4610.05,740.954C4597.08,733.668 4584.43,728.529 4550.73,718.748C4551.55,719.874 4551.92,721.268 4551.68,722.693C4550.18,731.474 4544.5,740.041 4531.97,747.369C4519.98,754.383 4506.94,757.202 4496.82,755.775C4494.92,755.492 4493.24,754.486 4492.19,753.006C4491.15,751.526 4490.84,749.711 4491.35,748.012C4494.08,739.111 4502.25,729.56 4514.2,722.568C4523.19,717.314 4531.37,715.224 4538.78,715.332C4532.12,713.454 4524.76,711.414 4516.59,709.179C4511.71,707.842 4506.94,706.402 4502.28,704.864C4502.81,705.059 4503.32,705.266 4503.82,705.483C4505.4,706.157 4506.59,707.411 4507.09,708.932C4507.59,710.453 4507.36,712.097 4506.46,713.455C4502.13,720.002 4494.39,725.605 4481.5,729.122C4469.42,732.418 4457.67,732.557 4449.08,730.1C4446.91,729.482 4445.23,727.922 4444.57,725.938C4443.92,723.954 4444.39,721.804 4445.82,720.2C4451.45,713.899 4461.27,708.182 4473.29,704.901C4484.26,701.909 4493.06,702.033 4500.16,704.154C4486.28,699.442 4473.45,693.847 4461.64,687.477C4462.59,688.482 4463.12,689.767 4463.13,691.105C4463.13,692.637 4462.45,694.103 4461.24,695.163C4455.36,700.334 4446.65,703.707 4433.83,703.711C4421.82,703.714 4411.06,700.759 4403.99,696.137C4402.2,694.968 4401.14,693.083 4401.13,691.073C4401.13,689.064 4402.19,687.176 4403.97,686.002C4410.95,681.411 4421.6,678.477 4433.56,678.474C4440.16,678.472 4445.69,679.363 4450.32,680.934C4440.81,675.063 4432.05,668.651 4424.03,661.765C4423.76,662.844 4423.14,663.856 4422.2,664.65C4416.25,669.661 4407.98,672.426 4396.4,670.99C4385.47,669.634 4376.22,665.101 4370.85,659.213C4369.63,657.877 4369.09,656.137 4369.34,654.416C4369.59,652.694 4370.62,651.147 4372.17,650.148C4378.96,645.805 4389.09,643.706 4399.98,645.057C4403.16,645.45 4406,646.089 4408.56,646.937C4402.82,640.792 4397.57,634.359 4392.82,627.677C4392.35,628.916 4391.4,630.01 4390.07,630.71C4383.87,633.984 4375.93,635.056 4365.7,632.285C4356.22,629.717 4348.54,624.868 4344.15,619.33C4342.89,617.761 4342.51,615.747 4343.11,613.882C4343.71,612.018 4345.23,610.517 4347.22,609.821C4354.12,607.38 4363.35,607.144 4372.78,609.699C4377.49,610.974 4381.32,612.693 4384.4,614.748C4379.97,607.278 4376.1,599.547 4372.77,591.602C4372.15,592.232 4371.35,592.741 4370.43,593.064C4363.75,595.431 4355.73,595.378 4346.08,591.206C4337.15,587.34 4330.37,581.472 4326.96,575.384C4325.99,573.657 4325.95,571.613 4326.86,569.856C4327.76,568.098 4329.52,566.827 4331.6,566.418C4338.82,564.972 4347.99,566.034 4356.88,569.88C4361.07,571.695 4364.43,573.792 4367.06,576.097C4364.33,567.55 4362.19,558.801 4360.64,549.902ZM4390.88,390.482C4390.19,391.97 4388.84,393.118 4387.17,393.632C4385.49,394.146 4383.66,393.976 4382.13,393.167C4376.59,390.278 4371.84,385.141 4368.75,376.676C4365.94,368.993 4365.52,361.389 4367.13,355.402C4367.68,353.305 4369.38,351.617 4371.62,350.932C4373.86,350.247 4376.33,350.663 4378.16,352.032C4383.32,355.885 4387.94,362.126 4390.73,369.763C4393.84,378.269 4393.41,385.049 4390.88,390.482ZM4412.8,356.054C4411.77,357.364 4410.17,358.204 4408.41,358.361C4406.65,358.518 4404.9,357.976 4403.62,356.873C4398.93,352.919 4395.57,346.937 4394.64,338.053C4393.8,329.991 4395.27,322.497 4398.31,316.993C4399.37,315.064 4401.44,313.768 4403.79,313.561C4406.14,313.355 4408.44,314.267 4409.88,315.976C4413.96,320.792 4416.92,327.822 4417.76,335.837C4418.69,344.763 4416.61,351.283 4412.8,356.054ZM4443.3,321.693C4442,322.791 4440.26,323.327 4438.5,323.164C4436.74,323 4435.15,322.154 4434.12,320.841C4430.38,316.12 4428.38,309.65 4429.39,300.774C4430.31,292.718 4433.37,285.637 4437.54,280.789C4438.99,279.089 4441.3,278.191 4443.65,278.412C4446,278.633 4448.06,279.943 4449.11,281.878C4452.06,287.334 4453.45,294.759 4452.53,302.767C4451.52,311.685 4448.07,317.702 4443.3,321.693ZM4474.13,299.856C4472.64,300.718 4470.81,300.951 4469.12,300.495C4467.42,300.04 4466.03,298.94 4465.28,297.477C4462.56,292.207 4461.89,285.512 4464.68,276.957C4467.2,269.194 4471.64,262.748 4476.72,258.683C4478.49,257.257 4480.94,256.762 4483.2,257.375C4485.47,257.987 4487.23,259.621 4487.87,261.698C4489.67,267.558 4489.54,275.089 4487.03,282.807C4484.23,291.402 4479.62,296.736 4474.13,299.856ZM4513.98,275.508C4512.3,275.986 4510.47,275.776 4508.96,274.933C4507.46,274.09 4506.42,272.696 4506.12,271.107C4504.99,265.371 4506.26,258.749 4511.39,251.151C4516.04,244.256 4522.16,239.088 4528.22,236.371C4530.34,235.415 4532.85,235.52 4534.86,236.651C4536.87,237.781 4538.11,239.776 4538.13,241.933C4538.2,248.021 4535.92,255.259 4531.3,262.113C4526.15,269.747 4520.18,273.802 4513.98,275.508ZM4539.6,273.952C4538.04,273.19 4536.92,271.853 4536.52,270.283C4536.12,268.712 4536.48,267.06 4537.51,265.749C4541.19,260.986 4547.24,257.162 4556.77,255.159C4565.41,253.342 4573.74,253.692 4580.11,255.723C4582.35,256.428 4584.03,258.133 4584.56,260.234C4585.09,262.336 4584.4,264.54 4582.73,266.069C4578.04,270.392 4570.79,273.992 4562.2,275.798C4552.63,277.81 4545.28,276.78 4539.6,273.952ZM4507.03,288.133C4506.36,286.64 4506.43,284.956 4507.22,283.514C4508.01,282.072 4509.44,281.01 4511.15,280.6C4517.31,279.079 4524.65,279.664 4533.38,283.675C4541.3,287.314 4547.47,292.439 4550.96,297.717C4552.18,299.561 4552.28,301.852 4551.22,303.78C4550.16,305.708 4548.09,307.003 4545.74,307.208C4539.1,307.799 4531.01,306.347 4523.13,302.729C4514.36,298.699 4509.42,293.621 4507.03,288.133ZM4474.06,308.016C4473.08,306.674 4472.78,305.012 4473.24,303.455C4473.7,301.897 4474.87,300.595 4476.45,299.881C4482.15,297.264 4489.47,296.495 4498.9,298.828C4507.46,300.944 4514.63,304.837 4519.2,309.371C4520.81,310.953 4521.41,313.179 4520.79,315.262C4520.18,317.344 4518.43,318.992 4516.17,319.623C4509.8,321.416 4501.55,321.473 4493.04,319.37C4483.56,317.026 4477.61,312.954 4474.06,308.016ZM4441.43,335.32C4440.02,334.35 4439.13,332.872 4439,331.264C4438.87,329.655 4439.5,328.073 4440.74,326.922C4445.17,322.73 4451.8,319.796 4461.54,319.149C4470.39,318.561 4478.56,320.072 4484.52,322.97C4486.61,323.979 4487.98,325.898 4488.15,328.049C4488.33,330.201 4487.28,332.282 4485.37,333.56C4480.01,337.176 4472.25,339.72 4463.45,340.304C4453.66,340.955 4446.57,338.909 4441.43,335.32ZM4372.21,475.961C4370.45,475.879 4368.81,475.107 4367.71,473.843C4366.61,472.579 4366.17,470.944 4366.48,469.358C4367.58,463.617 4371.27,457.798 4378.95,452.274C4385.91,447.261 4393.61,444.331 4400.32,443.682C4402.67,443.449 4404.98,444.336 4406.45,446.029C4407.91,447.722 4408.32,449.984 4407.53,452.016C4405.31,457.756 4400.44,463.836 4393.51,468.819C4385.8,474.369 4378.67,476.304 4372.21,475.961ZM4839.99,390.482C4837.45,385.049 4837.03,378.269 4840.14,369.763C4842.93,362.126 4847.55,355.885 4852.71,352.032C4854.54,350.663 4857.01,350.247 4859.24,350.932C4861.49,351.617 4863.18,353.305 4863.74,355.402C4865.34,361.389 4864.93,368.993 4862.12,376.676C4859.03,385.141 4854.28,390.278 4848.73,393.167C4847.21,393.976 4845.37,394.146 4843.7,393.632C4842.02,393.118 4840.67,391.97 4839.99,390.482ZM4818.07,356.054C4814.26,351.283 4812.18,344.763 4813.11,335.837C4813.94,327.822 4816.9,320.792 4820.98,315.976C4822.42,314.267 4824.73,313.355 4827.08,313.561C4829.43,313.768 4831.5,315.064 4832.56,316.993C4835.6,322.497 4837.07,329.991 4836.23,338.053C4835.3,346.937 4831.94,352.919 4827.25,356.873C4825.96,357.976 4824.22,358.518 4822.46,358.361C4820.7,358.204 4819.1,357.364 4818.07,356.054ZM4787.57,321.693C4782.8,317.702 4779.35,311.685 4778.33,302.767C4777.42,294.759 4778.8,287.334 4781.76,281.878C4782.81,279.943 4784.86,278.633 4787.22,278.412C4789.57,278.191 4791.88,279.089 4793.33,280.789C4797.5,285.637 4800.56,292.718 4801.48,300.774C4802.49,309.65 4800.49,316.12 4796.74,320.841C4795.72,322.154 4794.12,323 4792.37,323.164C4790.61,323.327 4788.86,322.791 4787.57,321.693ZM4756.73,299.856C4751.24,296.736 4746.64,291.402 4743.84,282.807C4741.33,275.089 4741.19,267.558 4743,261.698C4743.64,259.621 4745.4,257.987 4747.66,257.375C4749.93,256.762 4752.38,257.257 4754.15,258.683C4759.23,262.748 4763.66,269.194 4766.19,276.957C4768.97,285.512 4768.31,292.207 4765.58,297.477C4764.84,298.94 4763.44,300.04 4761.75,300.495C4760.06,300.951 4758.23,300.718 4756.73,299.856ZM4716.88,275.508C4710.69,273.802 4704.72,269.747 4699.57,262.113C4694.94,255.259 4692.66,248.021 4692.74,241.933C4692.76,239.776 4693.99,237.781 4696,236.651C4698.02,235.52 4700.52,235.415 4702.64,236.371C4708.7,239.088 4714.82,244.256 4719.48,251.151C4724.61,258.749 4725.88,265.371 4724.74,271.107C4724.44,272.696 4723.41,274.09 4721.9,274.933C4720.4,275.776 4718.57,275.986 4716.88,275.508ZM4691.27,273.952C4685.59,276.78 4678.23,277.81 4668.66,275.798C4660.07,273.992 4652.83,270.392 4648.13,266.069C4646.47,264.54 4645.78,262.336 4646.31,260.234C4646.84,258.133 4648.52,256.428 4650.75,255.723C4657.13,253.692 4665.46,253.342 4674.1,255.159C4683.62,257.162 4689.68,260.986 4693.36,265.749C4694.39,267.06 4694.75,268.712 4694.35,270.283C4693.95,271.853 4692.82,273.19 4691.27,273.952ZM4723.84,288.133C4721.44,293.621 4716.51,298.699 4707.73,302.729C4699.86,306.347 4691.76,307.799 4685.13,307.208C4682.78,307.003 4680.7,305.708 4679.64,303.78C4678.58,301.852 4678.69,299.561 4679.91,297.717C4683.4,292.439 4689.56,287.314 4697.49,283.675C4706.22,279.664 4713.55,279.079 4719.71,280.6C4721.42,281.01 4722.86,282.072 4723.65,283.514C4724.44,284.956 4724.51,286.64 4723.84,288.133ZM4756.81,308.016C4753.26,312.954 4747.3,317.026 4737.82,319.37C4729.31,321.473 4721.06,321.416 4714.69,319.623C4712.43,318.992 4710.69,317.344 4710.07,315.262C4709.46,313.179 4710.06,310.953 4711.66,309.371C4716.24,304.837 4723.4,300.944 4731.96,298.828C4741.4,296.495 4748.71,297.264 4754.41,299.881C4756,300.595 4757.17,301.897 4757.63,303.455C4758.09,305.012 4757.78,306.674 4756.81,308.016ZM4789.44,335.32C4784.3,338.909 4777.21,340.955 4767.41,340.304C4758.62,339.72 4750.86,337.176 4745.49,333.56C4743.59,332.282 4742.54,330.201 4742.71,328.049C4742.89,325.898 4744.26,323.979 4746.35,322.97C4752.3,320.072 4760.48,318.561 4769.32,319.149C4779.07,319.796 4785.7,322.73 4790.13,326.922C4791.37,328.073 4792,329.655 4791.87,331.264C4791.73,332.872 4790.85,334.35 4789.44,335.32ZM4858.66,475.961C4852.2,476.304 4845.07,474.369 4837.36,468.819C4830.43,463.836 4825.56,457.756 4823.34,452.016C4822.55,449.984 4822.95,447.722 4824.42,446.029C4825.88,444.336 4828.2,443.449 4830.55,443.682C4837.26,444.331 4844.95,447.261 4851.92,452.274C4859.6,457.798 4863.28,463.617 4864.38,469.358C4864.7,470.944 4864.25,472.579 4863.16,473.843C4862.06,475.107 4860.42,475.879 4858.66,475.961Z" style="fill:#1E3A8A;"/>
                </g>
                <g transform="matrix(1,0,0,1,3.1552,0)">
                    <path d="M4360.64,549.902C4359.77,550.978 4358.49,551.776 4356.95,552.07C4349.95,553.442 4342.04,552.23 4333.24,546.715C4325.09,541.606 4319.41,534.832 4317.1,528.328C4316.44,526.482 4316.75,524.458 4317.96,522.854C4319.16,521.25 4321.11,520.249 4323.24,520.146C4330.62,519.763 4339.49,522.136 4347.6,527.22C4353.01,530.612 4356.66,534.318 4358.94,538.184C4357.83,528.558 4357.39,518.787 4357.6,508.931C4356.71,510.835 4354.69,512.205 4352.29,512.321C4345.14,512.698 4337.52,510.395 4329.75,503.716C4322.55,497.529 4318.08,490.042 4316.89,483.292C4316.54,481.374 4317.19,479.418 4318.65,478.001C4320.1,476.584 4322.2,475.867 4324.32,476.062C4331.68,476.715 4340.04,480.3 4347.21,486.456C4353.69,492.025 4356.87,497.709 4357.8,503.271C4358.35,491.444 4359.85,479.513 4362.27,467.584C4361.92,468.737 4361.17,469.767 4360.12,470.512C4358.72,471.497 4356.93,471.886 4355.2,471.581C4347.82,470.313 4340.27,466.192 4333.03,457.603C4326.33,449.654 4322.49,440.959 4321.85,433.639C4321.65,431.524 4322.65,429.464 4324.49,428.167C4326.33,426.871 4328.76,426.516 4330.95,427.225C4338.46,429.627 4346.6,435.185 4353.27,443.095C4360.54,451.717 4363,459.509 4362.48,466.436L4362.47,466.639C4364.72,455.746 4367.76,444.856 4371.55,434.052C4371.23,434.291 4370.88,434.502 4370.51,434.679C4368.94,435.423 4367.11,435.516 4365.46,434.935C4358.45,432.491 4351.82,427.21 4346.36,417.584C4341.31,408.675 4339.23,399.495 4340.01,392.188C4340.23,390.075 4341.61,388.208 4343.68,387.231C4345.74,386.254 4348.21,386.299 4350.23,387.352C4357.14,390.932 4364.07,397.723 4369.1,406.588C4373.32,414.035 4374.82,420.535 4374.44,426.206C4388.44,390.051 4411.03,355.079 4441.83,324.359C4441.96,324.25 4442.16,324.25 4442.28,324.36C4442.41,324.469 4442.42,324.65 4442.31,324.77C4433.81,333.923 4426.02,343.271 4418.91,352.764C4422.87,349.335 4428.52,346.73 4436.43,345.47C4445.17,344.078 4453.47,344.836 4459.71,347.175C4461.9,347.989 4463.48,349.773 4463.88,351.898C4464.29,354.023 4463.47,356.19 4461.72,357.635C4456.78,361.722 4449.33,364.962 4440.65,366.345C4430.97,367.886 4423.69,366.497 4418.19,363.395C4416.68,362.558 4415.63,361.168 4415.32,359.58C4415.2,358.94 4415.2,358.294 4415.32,357.667C4407.44,368.612 4400.48,379.737 4394.4,390.964C4397.44,385.942 4402.88,381.567 4411.88,378.549C4420.2,375.757 4428.52,375.151 4435.12,376.435C4437.43,376.88 4439.33,378.378 4440.15,380.402C4440.96,382.427 4440.58,384.692 4439.14,386.4C4435.07,391.226 4428.38,395.627 4420.1,398.404C4410.89,401.495 4403.45,401.315 4397.43,399.16C4395.78,398.582 4394.48,397.384 4393.87,395.872C4393.34,394.566 4393.36,393.135 4393.92,391.856C4387.79,403.287 4382.57,414.824 4378.26,426.384C4380.41,420.998 4385.05,415.912 4393.43,411.666C4401.18,407.735 4409.29,405.967 4416.03,406.307C4418.39,406.421 4420.52,407.634 4421.67,409.519C4422.82,411.404 4422.82,413.696 4421.69,415.587C4418.49,420.927 4412.61,426.218 4404.91,430.126C4396.32,434.478 4388.94,435.346 4382.63,434.064C4380.9,433.726 4379.42,432.724 4378.56,431.316C4377.76,430.004 4377.57,428.458 4378.02,427.023C4367.58,455.235 4362.51,483.581 4362.52,510.893C4363.81,505.322 4367.28,499.294 4373.92,492.871C4380.77,486.247 4388.54,481.572 4395.54,479.38C4397.95,478.625 4400.62,479.152 4402.48,480.749C4404.34,482.346 4405.07,484.751 4404.39,486.994C4402.42,493.43 4397.79,500.707 4390.98,507.295C4383.41,514.61 4376.14,518.185 4369.36,519.308C4367.43,519.638 4365.44,519.107 4364.01,517.879C4363.4,517.35 4362.92,516.719 4362.59,516.029C4362.88,527.902 4364.13,539.563 4366.34,550.916C4366.55,545.18 4368.88,538.647 4374.34,531.227C4379.9,523.664 4386.72,517.885 4393.23,514.671C4395.47,513.564 4398.2,513.682 4400.32,514.978C4402.44,516.274 4403.59,518.535 4403.32,520.851C4402.54,527.495 4399.29,535.368 4393.76,542.891C4387.62,551.243 4381.09,555.863 4374.6,557.991C4372.76,558.606 4370.7,558.381 4369.07,557.384C4368.38,556.958 4367.79,556.413 4367.34,555.789C4369.94,567.611 4373.58,579.077 4378.23,590.075C4377.64,584.9 4378.67,578.982 4381.94,572.209C4386.47,562.849 4393.46,555.649 4400.7,551.995C4402.56,551.051 4404.81,550.957 4406.76,551.741C4408.71,552.525 4410.15,554.098 4410.65,555.992C4412.57,563.246 4411.46,572.715 4406.95,582.033C4402.1,592.075 4395.4,597.574 4387.99,600.147C4386.15,600.791 4384.18,600.574 4382.62,599.71C4387.89,610.469 4394.17,620.721 4401.44,630.351C4398.6,624.879 4397.64,617.956 4399.61,609.163C4401.86,599.14 4407.02,590.751 4413.24,585.779C4414.85,584.495 4417.02,583.968 4419.11,584.357C4421.2,584.745 4422.97,586.003 4423.9,587.758C4427.46,594.475 4428.57,603.944 4426.33,613.922C4423.92,624.676 4418.65,631.345 4412,635.297C4409.91,636.547 4407.29,636.482 4405.32,635.318C4412.73,644.488 4421.08,653.05 4430.34,660.898C4427.4,656.237 4425.72,650.231 4425.91,642.507C4426.15,632.278 4429.58,623.181 4434.73,617.272C4436.06,615.746 4438.09,614.873 4440.22,614.914C4442.36,614.954 4444.35,615.902 4445.6,617.476C4450.42,623.503 4453.38,632.636 4453.13,642.819C4452.86,653.795 4448.99,661.216 4443.23,666.191C4442,667.251 4440.43,667.762 4438.87,667.73C4446.33,673.374 4454.31,678.585 4462.8,683.317C4458.37,678.378 4455.61,671.485 4455.67,661.911C4455.74,651.68 4459,642.534 4464.05,636.549C4465.35,635.004 4467.36,634.102 4469.5,634.111C4471.63,634.119 4473.64,635.038 4474.92,636.594C4479.85,642.549 4482.97,651.637 4482.9,661.822C4482.82,672.8 4479.09,680.278 4473.41,685.338C4472.33,686.305 4470.96,686.834 4469.56,686.926C4481.27,692.918 4493.9,698.03 4507.41,702.151C4501.13,698.258 4496.16,691.771 4493.8,681.443C4491.51,671.427 4492.6,661.859 4496.15,655.039C4497.07,653.279 4498.83,652.01 4500.91,651.609C4503,651.208 4505.18,651.721 4506.79,652.995C4512.98,657.871 4518.12,666.158 4520.4,676.128C4522.86,686.875 4520.92,694.903 4516.53,700.94C4515.43,702.465 4513.65,703.339 4511.8,703.446C4513.37,703.894 4514.95,704.328 4516.54,704.749C4528.65,707.95 4538.8,710.648 4547.56,713.063C4542.66,709.714 4538.27,704.717 4534.75,697.57C4529.36,686.646 4528.31,675.398 4531.07,667.041C4531.65,665.339 4533,663.944 4534.77,663.21C4536.55,662.475 4538.59,662.471 4540.37,663.199C4548.97,666.769 4557.42,674.868 4562.78,685.753C4568.45,697.255 4568.12,706.662 4564.4,714.359C4563.82,715.556 4562.83,716.483 4561.64,717.053C4583.71,723.531 4596.4,728.607 4615.43,738.208C4634.47,728.607 4647.15,723.531 4669.22,717.053C4668.03,716.483 4667.05,715.556 4666.47,714.359C4662.75,706.662 4662.41,697.255 4668.08,685.753C4673.45,674.868 4681.9,666.769 4690.5,663.199C4692.28,662.471 4694.32,662.475 4696.09,663.21C4697.87,663.944 4699.22,665.339 4699.79,667.041C4702.56,675.398 4701.5,686.646 4696.12,697.57C4692.59,704.717 4688.21,709.714 4683.31,713.063C4692.07,710.648 4702.22,707.95 4714.33,704.749C4715.92,704.328 4717.5,703.894 4719.07,703.446C4717.21,703.339 4715.43,702.465 4714.33,700.94C4709.94,694.903 4708.01,686.875 4710.47,676.128C4712.75,666.158 4717.89,657.871 4724.08,652.995C4725.69,651.721 4727.86,651.208 4729.95,651.609C4732.04,652.01 4733.8,653.279 4734.72,655.039C4738.27,661.859 4739.36,671.427 4737.07,681.443C4734.7,691.771 4729.74,698.258 4723.46,702.151C4736.97,698.03 4749.59,692.918 4761.31,686.926C4759.91,686.834 4758.54,686.305 4757.46,685.338C4751.78,680.278 4748.04,672.8 4747.97,661.822C4747.9,651.637 4751.02,642.549 4755.94,636.594C4757.23,635.038 4759.23,634.119 4761.37,634.111C4763.5,634.102 4765.52,635.004 4766.82,636.549C4771.86,642.534 4775.13,651.68 4775.19,661.911C4775.26,671.485 4772.5,678.378 4768.07,683.317C4776.56,678.585 4784.54,673.374 4792,667.73C4790.44,667.762 4788.86,667.251 4787.64,666.191C4781.87,661.216 4778,653.795 4777.74,642.819C4777.49,632.636 4780.44,623.503 4785.27,617.476C4786.52,615.902 4788.51,614.954 4790.64,614.914C4792.78,614.873 4794.81,615.746 4796.13,617.272C4801.28,623.181 4804.71,632.278 4804.96,642.507C4805.15,650.231 4803.47,656.237 4800.53,660.898C4809.78,653.05 4818.13,644.488 4825.55,635.318C4823.57,636.482 4820.95,636.547 4818.86,635.297C4812.21,631.345 4806.95,624.676 4804.53,613.922C4802.29,603.944 4803.41,594.475 4806.97,587.758C4807.9,586.003 4809.67,584.745 4811.76,584.357C4813.85,583.968 4816.02,584.495 4817.62,585.779C4823.85,590.751 4829.01,599.14 4831.26,609.163C4833.23,617.956 4832.27,624.879 4829.43,630.351C4836.7,620.721 4842.98,610.469 4848.25,599.71C4846.68,600.574 4844.72,600.791 4842.88,600.147C4835.46,597.574 4828.77,592.075 4823.91,582.033C4819.41,572.715 4818.3,563.246 4820.22,555.992C4820.72,554.098 4822.16,552.525 4824.11,551.741C4826.06,550.957 4828.3,551.051 4830.17,551.995C4837.41,555.649 4844.4,562.849 4848.92,572.209C4852.2,578.982 4853.23,584.9 4852.64,590.075C4857.29,579.077 4860.93,567.611 4863.52,555.789C4863.07,556.413 4862.49,556.958 4861.79,557.384C4860.16,558.381 4858.11,558.606 4856.27,557.991C4849.78,555.863 4843.25,551.243 4837.1,542.891C4831.57,535.368 4828.32,527.495 4827.54,520.851C4827.27,518.535 4828.43,516.274 4830.55,514.978C4832.67,513.682 4835.4,513.564 4837.64,514.671C4844.15,517.885 4850.97,523.664 4856.53,531.227C4861.98,538.647 4864.32,545.18 4864.53,550.916C4866.73,539.563 4867.99,527.902 4868.28,516.029C4867.95,516.719 4867.47,517.35 4866.85,517.879C4865.43,519.107 4863.44,519.638 4861.51,519.308C4854.72,518.185 4847.45,514.61 4839.89,507.295C4833.07,500.707 4828.45,493.43 4826.48,486.994C4825.8,484.751 4826.53,482.346 4828.39,480.749C4830.24,479.152 4832.91,478.625 4835.33,479.38C4842.32,481.572 4850.09,486.247 4856.94,492.871C4863.59,499.294 4867.06,505.322 4868.34,510.893C4868.36,483.581 4863.29,455.235 4852.85,427.023C4853.3,428.458 4853.11,430.004 4852.31,431.316C4851.45,432.724 4849.97,433.726 4848.24,434.064C4841.92,435.346 4834.55,434.478 4825.96,430.126C4818.25,426.218 4812.38,420.927 4809.18,415.587C4808.04,413.696 4808.05,411.404 4809.2,409.519C4810.35,407.634 4812.47,406.421 4814.83,406.307C4821.57,405.967 4829.68,407.735 4837.44,411.666C4845.82,415.912 4850.46,420.998 4852.61,426.384C4848.3,414.824 4843.08,403.287 4836.94,391.856C4837.5,393.135 4837.53,394.566 4837,395.872C4836.39,397.384 4835.09,398.582 4833.44,399.16C4827.41,401.315 4819.98,401.495 4810.76,398.404C4802.49,395.627 4795.79,391.226 4791.73,386.4C4790.28,384.692 4789.9,382.427 4790.72,380.402C4791.54,378.378 4793.44,376.88 4795.75,376.435C4802.35,375.151 4810.66,375.757 4818.99,378.549C4827.98,381.567 4833.43,385.942 4836.46,390.964C4830.39,379.737 4823.42,368.612 4815.55,357.667C4815.66,358.294 4815.66,358.94 4815.54,359.58C4815.23,361.168 4814.19,362.558 4812.68,363.395C4807.18,366.497 4799.9,367.886 4790.22,366.345C4781.53,364.962 4774.09,361.722 4769.15,357.635C4767.39,356.19 4766.57,354.023 4766.98,351.898C4767.39,349.773 4768.97,347.989 4771.15,347.175C4777.4,344.836 4785.7,344.078 4794.44,345.47C4802.35,346.73 4808,349.335 4811.95,352.764C4804.85,343.271 4797.06,333.923 4788.56,324.77C4788.45,324.65 4788.46,324.469 4788.58,324.36C4788.71,324.25 4788.91,324.25 4789.03,324.359C4819.84,355.079 4842.43,390.051 4856.42,426.206C4856.04,420.535 4857.55,414.035 4861.77,406.588C4866.79,397.723 4873.73,390.932 4880.64,387.352C4882.66,386.299 4885.12,386.254 4887.19,387.231C4889.25,388.208 4890.63,390.075 4890.85,392.188C4891.64,399.495 4889.55,408.675 4884.51,417.584C4879.05,427.21 4872.42,432.491 4865.4,434.935C4863.76,435.516 4861.92,435.423 4860.36,434.679C4859.99,434.502 4859.64,434.291 4859.32,434.052C4863.11,444.856 4866.14,455.746 4868.4,466.639L4868.38,466.436C4867.87,459.509 4870.33,451.717 4877.6,443.095C4884.27,435.185 4892.41,429.627 4899.91,427.225C4902.1,426.516 4904.54,426.871 4906.38,428.167C4908.22,429.464 4909.22,431.524 4909.02,433.639C4908.38,440.959 4904.54,449.654 4897.84,457.603C4890.6,466.192 4883.04,470.313 4875.66,471.581C4873.93,471.886 4872.14,471.497 4870.75,470.512C4869.7,469.767 4868.95,468.737 4868.6,467.584C4871.02,479.513 4872.52,491.444 4873.07,503.271C4874,497.709 4877.18,492.025 4883.66,486.456C4890.82,480.3 4899.19,476.715 4906.55,476.062C4908.67,475.867 4910.76,476.584 4912.22,478.001C4913.68,479.418 4914.33,481.374 4913.98,483.292C4912.79,490.042 4908.31,497.529 4901.11,503.716C4893.35,510.395 4885.73,512.698 4878.58,512.321C4876.18,512.205 4874.16,510.835 4873.27,508.931C4873.48,518.787 4873.03,528.558 4871.92,538.184C4874.21,534.318 4877.86,530.612 4883.27,527.22C4891.38,522.136 4900.25,519.763 4907.63,520.146C4909.76,520.249 4911.71,521.25 4912.91,522.854C4914.11,524.458 4914.43,526.482 4913.76,528.328C4911.45,534.832 4905.78,541.606 4897.63,546.715C4888.83,552.23 4880.92,553.442 4873.92,552.07C4872.38,551.776 4871.09,550.978 4870.23,549.902C4868.68,558.801 4866.54,567.55 4863.8,576.097C4866.44,573.792 4869.79,571.695 4873.99,569.88C4882.88,566.034 4892.04,564.972 4899.27,566.418C4901.35,566.827 4903.1,568.098 4904.01,569.856C4904.92,571.613 4904.88,573.657 4903.9,575.384C4900.49,581.472 4893.72,587.34 4884.78,591.206C4875.14,595.378 4867.12,595.431 4860.44,593.064C4859.51,592.741 4858.72,592.232 4858.1,591.602C4854.77,599.547 4850.9,607.278 4846.46,614.748C4849.55,612.693 4853.38,610.974 4858.08,609.699C4867.51,607.144 4876.75,607.38 4883.65,609.821C4885.63,610.517 4887.15,612.018 4887.76,613.882C4888.36,615.747 4887.98,617.761 4886.72,619.33C4882.33,624.868 4874.64,629.717 4865.16,632.285C4854.94,635.056 4847,633.984 4840.8,630.71C4839.46,630.01 4838.52,628.916 4838.05,627.677C4833.29,634.359 4828.05,640.792 4822.31,646.937C4824.86,646.089 4827.71,645.45 4830.88,645.057C4841.77,643.706 4851.91,645.805 4858.69,650.148C4860.25,651.147 4861.28,652.694 4861.53,654.416C4861.78,656.137 4861.23,657.877 4860.02,659.213C4854.65,665.101 4845.4,669.634 4834.47,670.99C4822.89,672.426 4814.61,669.661 4808.67,664.65C4807.72,663.856 4807.11,662.844 4806.84,661.765C4798.82,668.651 4790.06,675.063 4780.55,680.934C4785.18,679.363 4790.71,678.472 4797.31,678.474C4809.27,678.477 4819.92,681.411 4826.9,686.002C4828.68,687.176 4829.74,689.064 4829.73,691.073C4829.73,693.083 4828.67,694.968 4826.88,696.137C4819.81,700.759 4809.05,703.714 4797.04,703.711C4784.21,703.707 4775.5,700.334 4769.63,695.163C4768.42,694.103 4767.73,692.637 4767.74,691.105C4767.75,689.767 4768.28,688.482 4769.22,687.477C4757.42,693.847 4744.58,699.442 4730.7,704.154C4737.8,702.033 4746.61,701.909 4757.57,704.901C4769.6,708.182 4779.41,713.899 4785.04,720.2C4786.48,721.804 4786.94,723.954 4786.29,725.938C4785.64,727.922 4783.95,729.482 4781.79,730.1C4773.19,732.557 4761.45,732.418 4749.37,729.122C4736.48,725.605 4728.74,720.002 4724.4,713.455C4723.5,712.097 4723.27,710.453 4723.78,708.932C4724.28,707.411 4725.47,706.157 4727.04,705.483C4727.55,705.266 4728.06,705.059 4728.58,704.864C4723.93,706.402 4719.16,707.842 4714.27,709.179C4706.11,711.414 4698.75,713.454 4692.09,715.332C4699.49,715.224 4707.68,717.314 4716.66,722.568C4728.62,729.56 4736.79,739.111 4739.52,748.012C4740.03,749.711 4739.72,751.526 4738.67,753.006C4737.63,754.486 4735.95,755.492 4734.04,755.775C4723.92,757.202 4710.89,754.383 4698.9,747.369C4686.36,740.041 4680.68,731.474 4679.19,722.693C4678.95,721.268 4679.32,719.874 4680.14,718.748C4646.44,728.529 4633.79,733.668 4620.81,740.954C4631.23,746.323 4643.69,753.022 4660.31,761.85L4656.93,767.859C4656.87,767.953 4656.78,768.023 4656.67,768.052C4656.55,768.08 4656.43,768.065 4656.34,768.01C4636.06,756.903 4624.94,749.721 4615.43,744.072C4605.93,749.721 4594.8,756.903 4574.53,768.01C4574.43,768.065 4574.31,768.08 4574.2,768.052C4574.09,768.023 4573.99,767.953 4573.94,767.859L4570.56,761.85C4587.18,753.022 4599.64,746.323 4610.05,740.954C4597.08,733.668 4584.43,728.529 4550.73,718.748C4551.55,719.874 4551.92,721.268 4551.68,722.693C4550.18,731.474 4544.5,740.041 4531.97,747.369C4519.98,754.383 4506.94,757.202 4496.82,755.775C4494.92,755.492 4493.24,754.486 4492.19,753.006C4491.15,751.526 4490.84,749.711 4491.35,748.012C4494.08,739.111 4502.25,729.56 4514.2,722.568C4523.19,717.314 4531.37,715.224 4538.78,715.332C4532.12,713.454 4524.76,711.414 4516.59,709.179C4511.71,707.842 4506.94,706.402 4502.28,704.864C4502.81,705.059 4503.32,705.266 4503.82,705.483C4505.4,706.157 4506.59,707.411 4507.09,708.932C4507.59,710.453 4507.36,712.097 4506.46,713.455C4502.13,720.002 4494.39,725.605 4481.5,729.122C4469.42,732.418 4457.67,732.557 4449.08,730.1C4446.91,729.482 4445.23,727.922 4444.57,725.938C4443.92,723.954 4444.39,721.804 4445.82,720.2C4451.45,713.899 4461.27,708.182 4473.29,704.901C4484.26,701.909 4493.06,702.033 4500.16,704.154C4486.28,699.442 4473.45,693.847 4461.64,687.477C4462.59,688.482 4463.12,689.767 4463.13,691.105C4463.13,692.637 4462.45,694.103 4461.24,695.163C4455.36,700.334 4446.65,703.707 4433.83,703.711C4421.82,703.714 4411.06,700.759 4403.99,696.137C4402.2,694.968 4401.14,693.083 4401.13,691.073C4401.13,689.064 4402.19,687.176 4403.97,686.002C4410.95,681.411 4421.6,678.477 4433.56,678.474C4440.16,678.472 4445.69,679.363 4450.32,680.934C4440.81,675.063 4432.05,668.651 4424.03,661.765C4423.76,662.844 4423.14,663.856 4422.2,664.65C4416.25,669.661 4407.98,672.426 4396.4,670.99C4385.47,669.634 4376.22,665.101 4370.85,659.213C4369.63,657.877 4369.09,656.137 4369.34,654.416C4369.59,652.694 4370.62,651.147 4372.17,650.148C4378.96,645.805 4389.09,643.706 4399.98,645.057C4403.16,645.45 4406,646.089 4408.56,646.937C4402.82,640.792 4397.57,634.359 4392.82,627.677C4392.35,628.916 4391.4,630.01 4390.07,630.71C4383.87,633.984 4375.93,635.056 4365.7,632.285C4356.22,629.717 4348.54,624.868 4344.15,619.33C4342.89,617.761 4342.51,615.747 4343.11,613.882C4343.71,612.018 4345.23,610.517 4347.22,609.821C4354.12,607.38 4363.35,607.144 4372.78,609.699C4377.49,610.974 4381.32,612.693 4384.4,614.748C4379.97,607.278 4376.1,599.547 4372.77,591.602C4372.15,592.232 4371.35,592.741 4370.43,593.064C4363.75,595.431 4355.73,595.378 4346.08,591.206C4337.15,587.34 4330.37,581.472 4326.96,575.384C4325.99,573.657 4325.95,571.613 4326.86,569.856C4327.76,568.098 4329.52,566.827 4331.6,566.418C4338.82,564.972 4347.99,566.034 4356.88,569.88C4361.07,571.695 4364.43,573.792 4367.06,576.097C4364.33,567.55 4362.19,558.801 4360.64,549.902ZM4390.88,390.482C4390.19,391.97 4388.84,393.118 4387.17,393.632C4385.49,394.146 4383.66,393.976 4382.13,393.167C4376.59,390.278 4371.84,385.141 4368.75,376.676C4365.94,368.993 4365.52,361.389 4367.13,355.402C4367.68,353.305 4369.38,351.617 4371.62,350.932C4373.86,350.247 4376.33,350.663 4378.16,352.032C4383.32,355.885 4387.94,362.126 4390.73,369.763C4393.84,378.269 4393.41,385.049 4390.88,390.482ZM4412.8,356.054C4411.77,357.364 4410.17,358.204 4408.41,358.361C4406.65,358.518 4404.9,357.976 4403.62,356.873C4398.93,352.919 4395.57,346.937 4394.64,338.053C4393.8,329.991 4395.27,322.497 4398.31,316.993C4399.37,315.064 4401.44,313.768 4403.79,313.561C4406.14,313.355 4408.44,314.267 4409.88,315.976C4413.96,320.792 4416.92,327.822 4417.76,335.837C4418.69,344.763 4416.61,351.283 4412.8,356.054ZM4443.3,321.693C4442,322.791 4440.26,323.327 4438.5,323.164C4436.74,323 4435.15,322.154 4434.12,320.841C4430.38,316.12 4428.38,309.65 4429.39,300.774C4430.31,292.718 4433.37,285.637 4437.54,280.789C4438.99,279.089 4441.3,278.191 4443.65,278.412C4446,278.633 4448.06,279.943 4449.11,281.878C4452.06,287.334 4453.45,294.759 4452.53,302.767C4451.52,311.685 4448.07,317.702 4443.3,321.693ZM4474.13,299.856C4472.64,300.718 4470.81,300.951 4469.12,300.495C4467.42,300.04 4466.03,298.94 4465.28,297.477C4462.56,292.207 4461.89,285.512 4464.68,276.957C4467.2,269.194 4471.64,262.748 4476.72,258.683C4478.49,257.257 4480.94,256.762 4483.2,257.375C4485.47,257.987 4487.23,259.621 4487.87,261.698C4489.67,267.558 4489.54,275.089 4487.03,282.807C4484.23,291.402 4479.62,296.736 4474.13,299.856ZM4513.98,275.508C4512.3,275.986 4510.47,275.776 4508.96,274.933C4507.46,274.09 4506.42,272.696 4506.12,271.107C4504.99,265.371 4506.26,258.749 4511.39,251.151C4516.04,244.256 4522.16,239.088 4528.22,236.371C4530.34,235.415 4532.85,235.52 4534.86,236.651C4536.87,237.781 4538.11,239.776 4538.13,241.933C4538.2,248.021 4535.92,255.259 4531.3,262.113C4526.15,269.747 4520.18,273.802 4513.98,275.508ZM4539.6,273.952C4538.04,273.19 4536.92,271.853 4536.52,270.283C4536.12,268.712 4536.48,267.06 4537.51,265.749C4541.19,260.986 4547.24,257.162 4556.77,255.159C4565.41,253.342 4573.74,253.692 4580.11,255.723C4582.35,256.428 4584.03,258.133 4584.56,260.234C4585.09,262.336 4584.4,264.54 4582.73,266.069C4578.04,270.392 4570.79,273.992 4562.2,275.798C4552.63,277.81 4545.28,276.78 4539.6,273.952ZM4507.03,288.133C4506.36,286.64 4506.43,284.956 4507.22,283.514C4508.01,282.072 4509.44,281.01 4511.15,280.6C4517.31,279.079 4524.65,279.664 4533.38,283.675C4541.3,287.314 4547.47,292.439 4550.96,297.717C4552.18,299.561 4552.28,301.852 4551.22,303.78C4550.16,305.708 4548.09,307.003 4545.74,307.208C4539.1,307.799 4531.01,306.347 4523.13,302.729C4514.36,298.699 4509.42,293.621 4507.03,288.133ZM4474.06,308.016C4473.08,306.674 4472.78,305.012 4473.24,303.455C4473.7,301.897 4474.87,300.595 4476.45,299.881C4482.15,297.264 4489.47,296.495 4498.9,298.828C4507.46,300.944 4514.63,304.837 4519.2,309.371C4520.81,310.953 4521.41,313.179 4520.79,315.262C4520.18,317.344 4518.43,318.992 4516.17,319.623C4509.8,321.416 4501.55,321.473 4493.04,319.37C4483.56,317.026 4477.61,312.954 4474.06,308.016ZM4441.43,335.32C4440.02,334.35 4439.13,332.872 4439,331.264C4438.87,329.655 4439.5,328.073 4440.74,326.922C4445.17,322.73 4451.8,319.796 4461.54,319.149C4470.39,318.561 4478.56,320.072 4484.52,322.97C4486.61,323.979 4487.98,325.898 4488.15,328.049C4488.33,330.201 4487.28,332.282 4485.37,333.56C4480.01,337.176 4472.25,339.72 4463.45,340.304C4453.66,340.955 4446.57,338.909 4441.43,335.32ZM4372.21,475.961C4370.45,475.879 4368.81,475.107 4367.71,473.843C4366.61,472.579 4366.17,470.944 4366.48,469.358C4367.58,463.617 4371.27,457.798 4378.95,452.274C4385.91,447.261 4393.61,444.331 4400.32,443.682C4402.67,443.449 4404.98,444.336 4406.45,446.029C4407.91,447.722 4408.32,449.984 4407.53,452.016C4405.31,457.756 4400.44,463.836 4393.51,468.819C4385.8,474.369 4378.67,476.304 4372.21,475.961ZM4839.99,390.482C4837.45,385.049 4837.03,378.269 4840.14,369.763C4842.93,362.126 4847.55,355.885 4852.71,352.032C4854.54,350.663 4857.01,350.247 4859.24,350.932C4861.49,351.617 4863.18,353.305 4863.74,355.402C4865.34,361.389 4864.93,368.993 4862.12,376.676C4859.03,385.141 4854.28,390.278 4848.73,393.167C4847.21,393.976 4845.37,394.146 4843.7,393.632C4842.02,393.118 4840.67,391.97 4839.99,390.482ZM4818.07,356.054C4814.26,351.283 4812.18,344.763 4813.11,335.837C4813.94,327.822 4816.9,320.792 4820.98,315.976C4822.42,314.267 4824.73,313.355 4827.08,313.561C4829.43,313.768 4831.5,315.064 4832.56,316.993C4835.6,322.497 4837.07,329.991 4836.23,338.053C4835.3,346.937 4831.94,352.919 4827.25,356.873C4825.96,357.976 4824.22,358.518 4822.46,358.361C4820.7,358.204 4819.1,357.364 4818.07,356.054ZM4787.57,321.693C4782.8,317.702 4779.35,311.685 4778.33,302.767C4777.42,294.759 4778.8,287.334 4781.76,281.878C4782.81,279.943 4784.86,278.633 4787.22,278.412C4789.57,278.191 4791.88,279.089 4793.33,280.789C4797.5,285.637 4800.56,292.718 4801.48,300.774C4802.49,309.65 4800.49,316.12 4796.74,320.841C4795.72,322.154 4794.12,323 4792.37,323.164C4790.61,323.327 4788.86,322.791 4787.57,321.693ZM4756.73,299.856C4751.24,296.736 4746.64,291.402 4743.84,282.807C4741.33,275.089 4741.19,267.558 4743,261.698C4743.64,259.621 4745.4,257.987 4747.66,257.375C4749.93,256.762 4752.38,257.257 4754.15,258.683C4759.23,262.748 4763.66,269.194 4766.19,276.957C4768.97,285.512 4768.31,292.207 4765.58,297.477C4764.84,298.94 4763.44,300.04 4761.75,300.495C4760.06,300.951 4758.23,300.718 4756.73,299.856ZM4716.88,275.508C4710.69,273.802 4704.72,269.747 4699.57,262.113C4694.94,255.259 4692.66,248.021 4692.74,241.933C4692.76,239.776 4693.99,237.781 4696,236.651C4698.02,235.52 4700.52,235.415 4702.64,236.371C4708.7,239.088 4714.82,244.256 4719.48,251.151C4724.61,258.749 4725.88,265.371 4724.74,271.107C4724.44,272.696 4723.41,274.09 4721.9,274.933C4720.4,275.776 4718.57,275.986 4716.88,275.508ZM4691.27,273.952C4685.59,276.78 4678.23,277.81 4668.66,275.798C4660.07,273.992 4652.83,270.392 4648.13,266.069C4646.47,264.54 4645.78,262.336 4646.31,260.234C4646.84,258.133 4648.52,256.428 4650.75,255.723C4657.13,253.692 4665.46,253.342 4674.1,255.159C4683.62,257.162 4689.68,260.986 4693.36,265.749C4694.39,267.06 4694.75,268.712 4694.35,270.283C4693.95,271.853 4692.82,273.19 4691.27,273.952ZM4723.84,288.133C4721.44,293.621 4716.51,298.699 4707.73,302.729C4699.86,306.347 4691.76,307.799 4685.13,307.208C4682.78,307.003 4680.7,305.708 4679.64,303.78C4678.58,301.852 4678.69,299.561 4679.91,297.717C4683.4,292.439 4689.56,287.314 4697.49,283.675C4706.22,279.664 4713.55,279.079 4719.71,280.6C4721.42,281.01 4722.86,282.072 4723.65,283.514C4724.44,284.956 4724.51,286.64 4723.84,288.133ZM4756.81,308.016C4753.26,312.954 4747.3,317.026 4737.82,319.37C4729.31,321.473 4721.06,321.416 4714.69,319.623C4712.43,318.992 4710.69,317.344 4710.07,315.262C4709.46,313.179 4710.06,310.953 4711.66,309.371C4716.24,304.837 4723.4,300.944 4731.96,298.828C4741.4,296.495 4748.71,297.264 4754.41,299.881C4756,300.595 4757.17,301.897 4757.63,303.455C4758.09,305.012 4757.78,306.674 4756.81,308.016ZM4789.44,335.32C4784.3,338.909 4777.21,340.955 4767.41,340.304C4758.62,339.72 4750.86,337.176 4745.49,333.56C4743.59,332.282 4742.54,330.201 4742.71,328.049C4742.89,325.898 4744.26,323.979 4746.35,322.97C4752.3,320.072 4760.48,318.561 4769.32,319.149C4779.07,319.796 4785.7,322.73 4790.13,326.922C4791.37,328.073 4792,329.655 4791.87,331.264C4791.73,332.872 4790.85,334.35 4789.44,335.32ZM4858.66,475.961C4852.2,476.304 4845.07,474.369 4837.36,468.819C4830.43,463.836 4825.56,457.756 4823.34,452.016C4822.55,449.984 4822.95,447.722 4824.42,446.029C4825.88,444.336 4828.2,443.449 4830.55,443.682C4837.26,444.331 4844.95,447.261 4851.92,452.274C4859.6,457.798 4863.28,463.617 4864.38,469.358C4864.7,470.944 4864.25,472.579 4863.16,473.843C4862.06,475.107 4860.42,475.879 4858.66,475.961Z" style="fill:url(#_Linear1);"/>
                </g>
            </g>
        </g>
    </g>
    <defs>
        <linearGradient id="_Linear1" x1="0" y1="0" x2="1" y2="0" gradientUnits="userSpaceOnUse" gradientTransform="matrix(1.41109,-433.573,474.846,1.28844,4612.87,700.013)"><stop offset="0" style="stop-color:#1E3A8A;stop-opacity:0"/><stop offset="0.34" style="stop-color:rgb(190,190,190);stop-opacity:0.46"/><stop offset="0.65" style="stop-color:rgb(241,241,241);stop-opacity:0.63"/><stop offset="1" style="stop-color:rgb(245,245,245);stop-opacity:0.24"/></linearGradient>
    </defs>
</svg>
